<?xml version="1.0" standalone="no"?>
<!DOCTYPE svg PUBLIC "-//W3C//DTD SVG 20010904//EN"
 "http://www.w3.org/TR/2001/REC-SVG-20010904/DTD/svg10.dtd">
<svg version="1.0" xmlns="http://www.w3.org/2000/svg"
 width="700.000000pt" height="700.000000pt" viewBox="0 0 700.000000 700.000000"
 preserveAspectRatio="xMidYMid meet">
<metadata>
Created by potrace 1.14, written by Peter Selinger 2001-2017
</metadata>
<g transform="translate(0.000000,700.000000) scale(0.100000,-0.100000)"
fill="#000000" stroke="none">
<path d="M1205 6993 c-210 -26 -429 -105 -595 -215 -62 -41 -73 -49 -123 -91
-260 -219 -424 -514 -475 -852 -4 -27 -7 -1085 -7 -2350 0 -2173 1 -2305 18
-2385 17 -82 40 -163 57 -205 4 -11 16 -40 26 -65 84 -208 247 -418 429 -554
163 -122 297 -184 520 -244 l100 -26 2305 -3 c2531 -2 2378 -6 2585 58 166 51
280 110 420 215 213 161 375 384 462 639 30 89 42 138 62 260 13 79 13 4556 0
4643 -16 111 -19 126 -50 227 -82 265 -236 491 -454 665 -130 103 -315 198
-458 236 -191 51 -19 48 -2492 49 -1265 1 -2313 0 -2330 -2z m4565 -326 c14
-3 54 -10 89 -17 346 -63 662 -350 766 -695 24 -80 28 -98 41 -184 4 -25 7
-1054 6 -2286 0 -1947 -2 -2249 -15 -2310 -29 -135 -30 -139 -73 -238 -136
-313 -441 -547 -779 -597 -113 -17 -4510 -18 -4605 -1 -97 17 -164 34 -174 43
-6 4 -16 8 -23 8 -8 0 -56 21 -108 46 -271 133 -493 418 -544 700 -6 33 -14
73 -17 89 -9 41 -9 4443 -1 4527 36 351 247 655 563 812 126 62 231 92 359
103 39 3 71 6 72 7 5 4 4422 -3 4443 -7z"/>
<path d="M1515 6003 c-134 -18 -270 -91 -368 -197 -42 -46 -87 -118 -87 -138
0 -7 35 -29 78 -48 42 -19 105 -49 139 -66 l62 -32 26 34 c44 57 77 83 135
105 51 19 77 21 367 21 298 1 313 2 314 19 0 11 0 57 0 104 0 47 0 112 0 145
l-1 60 -317 -1 c-175 -1 -331 -4 -348 -6z"/>
<path d="M2767 6003 c-3 -7 -2 -296 2 -315 0 -3 132 -6 291 -6 l290 0 0 164 0
164 -289 0 c-160 0 -292 -3 -294 -7z"/>
<path d="M3932 5848 l3 -163 290 -1 290 -1 -1 156 c-1 86 -2 159 -3 164 0 4
-132 7 -291 7 l-290 0 2 -162z"/>
<path d="M5100 5847 l0 -165 165 0 c178 -1 210 -5 266 -33 l37 -18 97 131 c74
100 94 133 83 140 -45 31 -141 72 -202 88 -55 14 -113 18 -258 19 l-188 2 0
-164z"/>
<path d="M5685 5230 c-2 -3 -3 -134 -3 -292 l0 -288 164 0 164 0 0 290 c0 225
-3 290 -12 291 -43 4 -310 3 -313 -1z"/>
<path d="M995 5011 c-3 -2 -5 -134 -5 -293 l0 -288 164 0 165 0 0 293 0 292
-160 0 c-88 1 -162 -1 -164 -4z"/>
<path d="M5681 3793 c0 -153 2 -285 4 -293 4 -13 30 -15 162 -15 l158 0 3 293
2 292 -164 0 -164 0 -1 -277z"/>
<path d="M990 3561 c0 -222 3 -290 13 -293 6 -2 80 -4 162 -3 l150 0 2 293 2
292 -164 0 -165 0 0 -289z"/>
<path d="M5754 2902 l-72 -3 0 -289 c0 -214 3 -290 11 -291 17 -1 268 -1 295
0 l22 1 0 290 0 290 -57 1 c-32 0 -74 1 -93 2 -19 1 -67 1 -106 -1z"/>
<path d="M1007 2682 c-15 -3 -17 -30 -17 -292 l0 -289 48 -3 c26 -2 100 -2
164 0 l117 3 -1 290 c0 207 -4 289 -12 290 -40 3 -286 3 -299 1z"/>
<path d="M5684 1729 c-2 -3 -3 -42 -3 -85 1 -124 -20 -181 -89 -248 l-39 -39
37 -56 c20 -31 56 -89 80 -129 23 -40 47 -75 52 -78 30 -18 164 124 217 229
51 103 68 176 70 308 l2 104 -161 0 c-89 0 -163 -2 -166 -6z"/>
<path d="M1285 1539 c-16 -5 -48 -11 -70 -14 -77 -11 -208 -35 -211 -38 -2 -2
3 -28 12 -58 70 -234 262 -397 512 -433 29 -4 32 -2 33 22 2 51 8 177 13 240
3 49 1 62 -10 62 -8 0 -16 0 -19 0 -3 0 -26 10 -52 21 -63 27 -129 92 -150
149 -21 58 -22 59 -58 49z"/>
<path d="M2150 1154 l0 -164 289 0 c222 0 290 3 293 13 2 6 4 80 4 162 l-1
150 -292 2 -293 1 0 -164z"/>
<path d="M3319 1302 c-1 -20 -1 -270 0 -294 1 -17 22 -18 291 -18 l290 0 0
164 0 165 -290 0 c-264 -1 -290 -2 -291 -17z"/>
<path d="M4489 1317 c-1 -1 -2 -75 -3 -165 l-1 -162 290 2 290 3 3 161 2 162
-290 0 c-159 0 -291 -1 -291 -1z"/>
</g>
</svg>
